<?xml version="1.0" encoding="utf-8"?>
<!-- Generator: Adobe Illustrator 16.0.0, SVG Export Plug-In . SVG Version: 6.00 Build 0)  -->
<!DOCTYPE svg PUBLIC "-//W3C//DTD SVG 1.1//EN" "http://www.w3.org/Graphics/SVG/1.1/DTD/svg11.dtd">
<svg version="1.1" id="Layer_1" xmlns="http://www.w3.org/2000/svg" xmlns:xlink="http://www.w3.org/1999/xlink" x="0px" y="0px"
	 width="672.201px" height="374.455px" viewBox="0 0 672.201 374.455" enable-background="new 0 0 672.201 374.455"
	 xml:space="preserve">
<g>
	<path fill="#BCD918" d="M276.805,214.523v91.5H154.549c-46.903,0-64.588-12.303-64.588-45.365c0-19.992,9.227-35.369,23.836-41.521
		c9.996-3.844,17.685-4.613,40.752-4.613H276.805L276.805,214.523z M146.86,146.091c-44.596,0-73.045,3.845-91.499,13.071
		C21.529,176.848,0,216.061,0,262.195c0,39.215,16.238,72.146,43.827,91.5c23.928,16.785,44.596,20.76,118.411,20.76h509.963
		v-68.432h-46.529V125.846h-70.482v180.177h-76.086V125.846h-70.016v180.177h-76.086V68.432h282.87
		c25.385,0,43.156,3.808,56.33,12.475V0h-336.96c-38.197,0-53.055,0-131.482,0H103.052v68.432h92.249
		c43.058,0,59.781,5.514,70.739,21.529c9.035,13.204,10.765,23.836,10.765,56.13H146.86L146.86,146.091z"/>
</g>
</svg>
